<svg width="1440" height="574" viewBox="0 0 1440 574" fill="none" xmlns="http://www.w3.org/2000/svg">
<rect opacity="0.02" x="-25.9479" y="140.027" width="147.296" height="144.139" stroke="white" stroke-width="2.10423"/>
<rect opacity="0.02" x="-25.9479" y="432.514" width="147.296" height="144.139" stroke="white" stroke-width="2.10423"/>
<rect opacity="0.02" x="-1.05211" y="1.05211" width="147.296" height="144.139" transform="matrix(-1 0 0 1 269.696 -7.26904)" stroke="white" stroke-width="2.10423"/>
<rect opacity="0.02" x="-1.05211" y="1.05211" width="147.296" height="144.139" transform="matrix(-1 0 0 1 269.696 285.218)" stroke="white" stroke-width="2.10423"/>
<rect opacity="0.02" x="-1.05211" y="1.05211" width="147.296" height="144.139" transform="matrix(-1 0 0 1 568.496 -7.26904)" stroke="white" stroke-width="2.10423"/>
<rect opacity="0.02" x="-1.05211" y="1.05211" width="147.296" height="144.139" transform="matrix(-1 0 0 1 568.496 285.218)" stroke="white" stroke-width="2.10423"/>
<rect opacity="0.02" x="-1.05211" y="1.05211" width="147.296" height="144.139" transform="matrix(-1 0 0 1 867.296 -7.26904)" stroke="white" stroke-width="2.10423"/>
<rect opacity="0.02" x="-1.05211" y="1.05211" width="147.296" height="144.139" transform="matrix(-1 0 0 1 867.296 285.218)" stroke="white" stroke-width="2.10423"/>
<rect opacity="0.02" x="-1.05211" y="1.05211" width="147.296" height="144.139" transform="matrix(-1 0 0 1 1166.1 -7.26904)" stroke="white" stroke-width="2.10423"/>
<rect opacity="0.02" x="-1.05211" y="1.05211" width="147.296" height="144.139" transform="matrix(-1 0 0 1 1166.1 285.218)" stroke="white" stroke-width="2.10423"/>
<rect opacity="0.02" x="-1.05211" y="1.05211" width="147.296" height="144.139" transform="matrix(-1 0 0 1 1464.9 -7.26904)" stroke="white" stroke-width="2.10423"/>
<rect opacity="0.02" x="-1.05211" y="1.05211" width="147.296" height="144.139" transform="matrix(-1 0 0 1 1464.9 285.218)" stroke="white" stroke-width="2.10423"/>
<rect opacity="0.02" x="272.852" y="140.027" width="147.296" height="144.139" stroke="white" stroke-width="2.10423"/>
<rect opacity="0.02" x="272.852" y="432.514" width="147.296" height="144.139" stroke="white" stroke-width="2.10423"/>
<rect opacity="0.02" x="571.652" y="140.027" width="147.296" height="144.139" stroke="white" stroke-width="2.10423"/>
<rect opacity="0.02" x="571.652" y="432.514" width="147.296" height="144.139" stroke="white" stroke-width="2.10423"/>
<rect opacity="0.02" x="870.452" y="140.027" width="147.296" height="144.139" stroke="white" stroke-width="2.10423"/>
<rect opacity="0.02" x="870.452" y="432.514" width="147.296" height="144.139" stroke="white" stroke-width="2.10423"/>
<rect opacity="0.02" x="1169.25" y="140.027" width="147.296" height="144.139" stroke="white" stroke-width="2.10423"/>
<rect opacity="0.02" x="1169.25" y="432.514" width="147.296" height="144.139" stroke="white" stroke-width="2.10423"/>
<rect opacity="0.02" x="123.452" y="140.027" width="147.296" height="144.139" fill="white" stroke="white" stroke-width="2.10423"/>
<rect opacity="0.02" x="123.452" y="432.514" width="147.296" height="144.139" fill="white" stroke="white" stroke-width="2.10423"/>
<rect opacity="0.1" x="-1.05211" y="1.05211" width="147.296" height="144.139" transform="matrix(-1 0 0 1 120.296 -7.26904)" fill="white" stroke="white" stroke-width="2.10423"/>
<rect opacity="0.02" x="-1.05211" y="1.05211" width="147.296" height="144.139" transform="matrix(-1 0 0 1 120.296 285.218)" fill="white" stroke="white" stroke-width="2.10423"/>
<rect opacity="0.02" x="-1.05211" y="1.05211" width="147.296" height="144.139" transform="matrix(-1 0 0 1 419.096 -7.26904)" fill="white" stroke="white" stroke-width="2.10423"/>
<rect opacity="0.02" x="-1.05211" y="1.05211" width="147.296" height="144.139" transform="matrix(-1 0 0 1 419.096 285.218)" fill="white" stroke="white" stroke-width="2.10423"/>
<rect opacity="0.02" x="-1.05211" y="1.05211" width="147.296" height="144.139" transform="matrix(-1 0 0 1 717.896 -7.26904)" fill="white" stroke="white" stroke-width="2.10423"/>
<rect opacity="0.02" x="-1.05211" y="1.05211" width="147.296" height="144.139" transform="matrix(-1 0 0 1 717.896 285.218)" fill="white" stroke="white" stroke-width="2.10423"/>
<rect opacity="0.1" x="-1.05211" y="1.05211" width="147.296" height="144.139" transform="matrix(-1 0 0 1 1016.7 -7.26904)" fill="white" stroke="white" stroke-width="2.10423"/>
<rect opacity="0.02" x="-1.05211" y="1.05211" width="147.296" height="144.139" transform="matrix(-1 0 0 1 1016.7 285.218)" fill="white" stroke="white" stroke-width="2.10423"/>
<rect opacity="0.02" x="-1.05211" y="1.05211" width="147.296" height="144.139" transform="matrix(-1 0 0 1 1315.5 -7.26904)" fill="white" stroke="white" stroke-width="2.10423"/>
<rect opacity="0.02" x="-1.05211" y="1.05211" width="147.296" height="144.139" transform="matrix(-1 0 0 1 1315.5 285.218)" fill="white" stroke="white" stroke-width="2.10423"/>
<rect opacity="0.05" x="422.252" y="140.027" width="147.296" height="144.139" fill="white" stroke="white" stroke-width="2.10423"/>
<rect opacity="0.02" x="422.252" y="432.514" width="147.296" height="144.139" fill="white" stroke="white" stroke-width="2.10423"/>
<rect opacity="0.02" x="721.052" y="432.514" width="147.296" height="144.139" fill="white" stroke="white" stroke-width="2.10423"/>
<rect opacity="0.02" x="1019.85" y="432.514" width="147.296" height="144.139" fill="white" stroke="white" stroke-width="2.10423"/>
<rect opacity="0.15" x="1318.65" y="432.514" width="147.296" height="144.139" fill="white" stroke="white" stroke-width="2.10423"/>
</svg>
