<svg width="120" height="22" viewBox="0 0 120 22" fill="none" xmlns="http://www.w3.org/2000/svg">
<path d="M17.2582 0.529746V21.2918H13.0853V12.4575H4.17297V21.2918H0V0.529746H4.17297V9.06657H13.0853V0.529746H17.2582Z" fill="white"/>
<path d="M25.4789 0.529746V13.3796C25.4789 14.7875 25.8465 15.8683 26.5817 16.6218C27.317 17.3555 28.3503 17.7224 29.6817 17.7224C31.0329 17.7224 32.0762 17.3555 32.8114 16.6218C33.5466 15.8683 33.9143 14.7875 33.9143 13.3796V0.529746H38.117V13.3499C38.117 15.1147 37.7295 16.6119 36.9546 17.8414C36.1995 19.051 35.1761 19.9632 33.8844 20.5779C32.6127 21.1926 31.1919 21.5 29.6221 21.5C28.0721 21.5 26.6612 21.1926 25.3895 20.5779C24.1376 19.9632 23.144 19.051 22.4088 17.8414C21.6735 16.6119 21.3059 15.1147 21.3059 13.3499V0.529746H25.4789Z" fill="white"/>
<path d="M59.9436 21.2918H55.7707L46.3219 7.04391V21.2918H42.1489V0.5H46.3219L55.7707 14.7776V0.5H59.9436V21.2918Z" fill="white"/>
<path d="M68.2405 0.529746V21.2918H64.0675V0.529746H68.2405Z" fill="white"/>
<path d="M85.1207 17.3357H76.8344L75.4633 21.2918H71.0817L78.5632 0.5H83.4217L90.9033 21.2918H86.4919L85.1207 17.3357ZM83.9881 14.0043L80.9776 5.3187L77.9671 14.0043H83.9881Z" fill="white"/>
<path d="M111.495 21.2918H107.322L97.8728 7.04391V21.2918H93.6998V0.5H97.8728L107.322 14.7776V0.5H111.495V21.2918Z" fill="white"/>
<path d="M117.466 21.5C116.711 21.5 116.085 21.272 115.589 20.8159C115.112 20.3399 114.873 19.755 114.873 19.0609C114.873 18.3669 115.112 17.7918 115.589 17.3357C116.085 16.8598 116.711 16.6218 117.466 16.6218C118.202 16.6218 118.808 16.8598 119.285 17.3357C119.762 17.7918 120 18.3669 120 19.0609C120 19.755 119.762 20.3399 119.285 20.8159C118.808 21.272 118.202 21.5 117.466 21.5Z" fill="white"/>
</svg>
